%TF.GenerationSoftware,KiCad,Pcbnew,9.0.2*%
%TF.CreationDate,2025-07-24T10:13:20+05:30*%
%TF.ProjectId,v2 mouse,7632206d-6f75-4736-952e-6b696361645f,rev?*%
%TF.SameCoordinates,Original*%
%TF.FileFunction,Plated,1,2,PTH,Drill*%
%TF.FilePolarity,Positive*%
%FSLAX46Y46*%
G04 Gerber Fmt 4.6, Leading zero omitted, Abs format (unit mm)*
G04 Created by KiCad (PCBNEW 9.0.2) date 2025-07-24 10:13:20*
%MOMM*%
%LPD*%
G01*
G04 APERTURE LIST*
%TA.AperFunction,ViaDrill*%
%ADD10C,0.300000*%
%TD*%
%TA.AperFunction,ComponentDrill*%
%ADD11C,0.700000*%
%TD*%
%TA.AperFunction,ComponentDrill*%
%ADD12C,0.710000*%
%TD*%
%TA.AperFunction,ComponentDrill*%
%ADD13C,0.750000*%
%TD*%
%TA.AperFunction,ComponentDrill*%
%ADD14C,0.900000*%
%TD*%
%TA.AperFunction,ComponentDrill*%
%ADD15C,0.990000*%
%TD*%
%TA.AperFunction,ComponentDrill*%
%ADD16C,1.000000*%
%TD*%
%TA.AperFunction,ComponentDrill*%
%ADD17C,1.020000*%
%TD*%
%TA.AperFunction,ComponentDrill*%
%ADD18C,1.117600*%
%TD*%
%TA.AperFunction,ComponentDrill*%
%ADD19C,1.320000*%
%TD*%
G04 APERTURE END LIST*
D10*
X110912000Y-116193600D03*
X112412000Y-117193600D03*
X118412000Y-123693600D03*
X119412000Y-94193600D03*
X119412000Y-118693600D03*
X126412000Y-115193600D03*
X128412000Y-61693600D03*
X129412000Y-57693600D03*
X129412000Y-107193600D03*
X132412000Y-113693600D03*
X132476000Y-40693600D03*
X134912000Y-92193600D03*
X136412000Y-108193600D03*
X144412000Y-91193600D03*
X146412000Y-89693600D03*
X155912000Y-91693600D03*
X159412000Y-87693600D03*
X164976000Y-140720200D03*
D11*
%TO.C,R2*%
X87412000Y-74788600D03*
X87412000Y-76688600D03*
%TO.C,R1*%
X96512000Y-56193600D03*
X98412000Y-56193600D03*
%TO.C,R10*%
X98507000Y-141693600D03*
X100407000Y-141693600D03*
%TO.C,R12*%
X103976000Y-63315200D03*
X103976000Y-65215200D03*
%TO.C,R13*%
X104576000Y-88220200D03*
X106476000Y-88220200D03*
%TO.C,R11*%
X128412000Y-47198600D03*
X128412000Y-49098600D03*
%TO.C,J4*%
X130102000Y-43193600D03*
%TO.C,R5*%
X130412000Y-69288600D03*
X130412000Y-71188600D03*
%TO.C,J4*%
X131372000Y-43193600D03*
%TO.C,R7*%
X131412000Y-47193600D03*
X131412000Y-49093600D03*
%TO.C,J4*%
X132642000Y-43193600D03*
%TO.C,R6*%
X133412000Y-68788600D03*
X133412000Y-70688600D03*
%TO.C,J4*%
X133912000Y-43193600D03*
X135182000Y-43193600D03*
X136452000Y-43193600D03*
%TO.C,R8*%
X148976000Y-60720200D03*
X150876000Y-60720200D03*
%TO.C,R3*%
X154512000Y-51693600D03*
X156412000Y-51693600D03*
%TO.C,R14*%
X162481000Y-89720200D03*
X164381000Y-89720200D03*
%TO.C,R9*%
X169507000Y-144193600D03*
X171407000Y-144193600D03*
%TO.C,R4*%
X174512000Y-76193600D03*
X176412000Y-76193600D03*
D12*
%TO.C,C9*%
X122372000Y-70193600D03*
X124912000Y-70193600D03*
%TO.C,C7*%
X134372000Y-47693600D03*
X136912000Y-47693600D03*
D13*
%TO.C,J2*%
X106412000Y-96193600D03*
X106412000Y-98193600D03*
%TO.C,C4*%
X113912000Y-82693600D03*
%TO.C,C3*%
X113912000Y-94693600D03*
%TO.C,C4*%
X116412000Y-82693600D03*
%TO.C,C3*%
X116412000Y-94693600D03*
%TO.C,C6*%
X117976000Y-73720200D03*
X117976000Y-76220200D03*
%TO.C,C5*%
X147976000Y-70720200D03*
X147976000Y-73220200D03*
%TO.C,C1*%
X148912000Y-94693600D03*
%TO.C,C2*%
X149162000Y-84693600D03*
%TO.C,C1*%
X151412000Y-94693600D03*
%TO.C,C2*%
X151662000Y-84693600D03*
%TO.C,J3*%
X160944000Y-96037200D03*
X160944000Y-98037200D03*
D14*
%TO.C,D3*%
X94811000Y-141450200D03*
X94811000Y-143990200D03*
%TO.C,D1*%
X175077000Y-141923600D03*
X175077000Y-144463600D03*
D15*
%TO.C,S1*%
X106726000Y-134470200D03*
X106726000Y-140970200D03*
X111226000Y-134470200D03*
X111226000Y-140970200D03*
D16*
%TO.C,U6*%
X87192000Y-81293600D03*
X87192000Y-86793600D03*
X89732000Y-81293600D03*
X89732000Y-86793600D03*
%TO.C,U5*%
X103872000Y-51693600D03*
X103872000Y-57193600D03*
X106412000Y-51693600D03*
X106412000Y-57193600D03*
%TO.C,J1*%
X116412000Y-144693600D03*
X118912000Y-144693600D03*
%TO.C,ACC1*%
X124132000Y-65475200D03*
X126672000Y-65475200D03*
X129212000Y-65475200D03*
X131752000Y-65475200D03*
X134292000Y-65475200D03*
X136832000Y-65475200D03*
X139372000Y-65475200D03*
X141912000Y-65475200D03*
%TO.C,U7*%
X160692000Y-51793600D03*
X160692000Y-57293600D03*
X163232000Y-51793600D03*
X163232000Y-57293600D03*
%TO.C,U8*%
X176872000Y-81193600D03*
X176872000Y-86693600D03*
X179412000Y-81193600D03*
X179412000Y-86693600D03*
D17*
%TO.C,U3*%
X125792000Y-77183600D03*
X125792000Y-79723600D03*
X125792000Y-82263600D03*
X125792000Y-84803600D03*
X125792000Y-87343600D03*
X125792000Y-89883600D03*
X125792000Y-92423600D03*
X125792000Y-94963600D03*
X125792000Y-97503600D03*
X125792000Y-100043600D03*
X125792000Y-102583600D03*
X125792000Y-105123600D03*
X125792000Y-107663600D03*
X125792000Y-110203600D03*
X128332000Y-110203600D03*
X130872000Y-110203600D03*
X133412000Y-110203600D03*
X135952000Y-110203600D03*
X138492000Y-110203600D03*
X141032000Y-77183600D03*
X141032000Y-79723600D03*
X141032000Y-82263600D03*
X141032000Y-84803600D03*
X141032000Y-87343600D03*
X141032000Y-89883600D03*
X141032000Y-92423600D03*
X141032000Y-94963600D03*
X141032000Y-97503600D03*
X141032000Y-100043600D03*
X141032000Y-102583600D03*
X141032000Y-105123600D03*
X141032000Y-107663600D03*
X141032000Y-110203600D03*
D18*
%TO.C,U1*%
X112502000Y-69680200D03*
X112502000Y-72220200D03*
X112502000Y-74760200D03*
%TO.C,Q1*%
X153955700Y-66180200D03*
X153955700Y-68720200D03*
X153955700Y-71260200D03*
D19*
%TO.C,U4*%
X126292000Y-119303600D03*
X126292000Y-121843600D03*
X126292000Y-124383600D03*
X126292000Y-126923600D03*
X126292000Y-129463600D03*
X126292000Y-132003600D03*
X126292000Y-134543600D03*
X126292000Y-137083600D03*
X141532000Y-119303600D03*
X141532000Y-121843600D03*
X141532000Y-124383600D03*
X141532000Y-126923600D03*
X141532000Y-129463600D03*
X141532000Y-132003600D03*
X141532000Y-134543600D03*
X141532000Y-137083600D03*
M02*
