%TF.GenerationSoftware,KiCad,Pcbnew,9.0.2*%
%TF.CreationDate,2025-07-24T10:13:15+05:30*%
%TF.ProjectId,v2 mouse,7632206d-6f75-4736-952e-6b696361645f,rev?*%
%TF.SameCoordinates,Original*%
%TF.FileFunction,Copper,L1,Top*%
%TF.FilePolarity,Positive*%
%FSLAX46Y46*%
G04 Gerber Fmt 4.6, Leading zero omitted, Abs format (unit mm)*
G04 Created by KiCad (PCBNEW 9.0.2) date 2025-07-24 10:13:15*
%MOMM*%
%LPD*%
G01*
G04 APERTURE LIST*
G04 Aperture macros list*
%AMRoundRect*
0 Rectangle with rounded corners*
0 $1 Rounding radius*
0 $2 $3 $4 $5 $6 $7 $8 $9 X,Y pos of 4 corners*
0 Add a 4 corners polygon primitive as box body*
4,1,4,$2,$3,$4,$5,$6,$7,$8,$9,$2,$3,0*
0 Add four circle primitives for the rounded corners*
1,1,$1+$1,$2,$3*
1,1,$1+$1,$4,$5*
1,1,$1+$1,$6,$7*
1,1,$1+$1,$8,$9*
0 Add four rect primitives between the rounded corners*
20,1,$1+$1,$2,$3,$4,$5,0*
20,1,$1+$1,$4,$5,$6,$7,0*
20,1,$1+$1,$6,$7,$8,$9,0*
20,1,$1+$1,$8,$9,$2,$3,0*%
G04 Aperture macros list end*
%TA.AperFunction,ComponentPad*%
%ADD10C,1.400000*%
%TD*%
%TA.AperFunction,ComponentPad*%
%ADD11C,1.500000*%
%TD*%
%TA.AperFunction,ComponentPad*%
%ADD12C,1.100000*%
%TD*%
%TA.AperFunction,ComponentPad*%
%ADD13R,1.100000X1.100000*%
%TD*%
%TA.AperFunction,ComponentPad*%
%ADD14R,1.498000X1.498000*%
%TD*%
%TA.AperFunction,ComponentPad*%
%ADD15C,1.498000*%
%TD*%
%TA.AperFunction,ComponentPad*%
%ADD16R,1.800000X1.800000*%
%TD*%
%TA.AperFunction,ComponentPad*%
%ADD17C,1.800000*%
%TD*%
%TA.AperFunction,ComponentPad*%
%ADD18C,1.530000*%
%TD*%
%TA.AperFunction,ComponentPad*%
%ADD19C,1.210000*%
%TD*%
%TA.AperFunction,ComponentPad*%
%ADD20R,1.000000X1.000000*%
%TD*%
%TA.AperFunction,ComponentPad*%
%ADD21C,1.000000*%
%TD*%
%TA.AperFunction,ComponentPad*%
%ADD22RoundRect,0.250000X-0.600000X-0.750000X0.600000X-0.750000X0.600000X0.750000X-0.600000X0.750000X0*%
%TD*%
%TA.AperFunction,ComponentPad*%
%ADD23O,1.700000X2.000000*%
%TD*%
%TA.AperFunction,ComponentPad*%
%ADD24RoundRect,0.250000X0.625000X-0.350000X0.625000X0.350000X-0.625000X0.350000X-0.625000X-0.350000X0*%
%TD*%
%TA.AperFunction,ComponentPad*%
%ADD25O,1.750000X1.200000*%
%TD*%
%TA.AperFunction,ComponentPad*%
%ADD26O,3.352800X1.676400*%
%TD*%
%TA.AperFunction,ComponentPad*%
%ADD27O,1.500000X3.000000*%
%TD*%
%TA.AperFunction,ComponentPad*%
%ADD28RoundRect,0.250000X-0.625000X0.350000X-0.625000X-0.350000X0.625000X-0.350000X0.625000X0.350000X0*%
%TD*%
%TA.AperFunction,ComponentPad*%
%ADD29C,1.980000*%
%TD*%
%TA.AperFunction,ViaPad*%
%ADD30C,0.600000*%
%TD*%
%TA.AperFunction,Conductor*%
%ADD31C,1.000000*%
%TD*%
%TA.AperFunction,Conductor*%
%ADD32C,0.600000*%
%TD*%
%TA.AperFunction,Conductor*%
%ADD33C,0.200000*%
%TD*%
G04 APERTURE END LIST*
D10*
%TO.P,R6,1*%
%TO.N,Net-(ACC1-PadSDA)*%
X133412000Y-68788600D03*
%TO.P,R6,2*%
%TO.N,Net-(R6-Pad2)*%
X133412000Y-70688600D03*
%TD*%
%TO.P,R11,1*%
%TO.N,Net-(R11-Pad1)*%
X128412000Y-49098600D03*
%TO.P,R11,2*%
%TO.N,Net-(J4-Pin_4)*%
X128412000Y-47198600D03*
%TD*%
%TO.P,R14,1*%
%TO.N,Net-(R14-Pad1)*%
X164381000Y-89720200D03*
%TO.P,R14,2*%
%TO.N,Net-(R14-Pad2)*%
X162481000Y-89720200D03*
%TD*%
%TO.P,R7,1*%
%TO.N,Net-(R7-Pad1)*%
X131412000Y-49093600D03*
%TO.P,R7,2*%
%TO.N,Net-(J4-Pin_3)*%
X131412000Y-47193600D03*
%TD*%
%TO.P,R2,1*%
%TO.N,+3.3V*%
X87412000Y-74788600D03*
%TO.P,R2,2*%
%TO.N,Net-(R2-Pad2)*%
X87412000Y-76688600D03*
%TD*%
%TO.P,R4,1*%
%TO.N,+3.3V*%
X174512000Y-76193600D03*
%TO.P,R4,2*%
%TO.N,Net-(R4-Pad2)*%
X176412000Y-76193600D03*
%TD*%
D11*
%TO.P,U7,A*%
%TO.N,Net-(R3-Pad2)*%
X160692000Y-51793600D03*
%TO.P,U7,CATH*%
%TO.N,GND*%
X163232000Y-51793600D03*
%TO.P,U7,COLL*%
%TO.N,Net-(R8-Pad1)*%
X160692000Y-57293600D03*
%TO.P,U7,E*%
%TO.N,GND*%
X163232000Y-57293600D03*
%TD*%
D12*
%TO.P,C1,N*%
%TO.N,GND*%
X151412000Y-94693600D03*
D13*
%TO.P,C1,P*%
%TO.N,+7.5V*%
X148912000Y-94693600D03*
%TD*%
D10*
%TO.P,R9,1*%
%TO.N,+7.5V*%
X169507000Y-144193600D03*
%TO.P,R9,2*%
%TO.N,Net-(D1-K)*%
X171407000Y-144193600D03*
%TD*%
%TO.P,R8,1*%
%TO.N,Net-(R8-Pad1)*%
X148976000Y-60720200D03*
%TO.P,R8,2*%
%TO.N,Net-(R8-Pad2)*%
X150876000Y-60720200D03*
%TD*%
D12*
%TO.P,C4,N*%
%TO.N,GND*%
X116412000Y-82693600D03*
D13*
%TO.P,C4,P*%
%TO.N,+7.5V*%
X113912000Y-82693600D03*
%TD*%
D11*
%TO.P,U5,A*%
%TO.N,Net-(R1-Pad2)*%
X103872000Y-51693600D03*
%TO.P,U5,CATH*%
%TO.N,GND*%
X106412000Y-51693600D03*
%TO.P,U5,COLL*%
%TO.N,Net-(R12-Pad1)*%
X103872000Y-57193600D03*
%TO.P,U5,E*%
%TO.N,GND*%
X106412000Y-57193600D03*
%TD*%
D14*
%TO.P,S1,1*%
%TO.N,Net-(S1-Pad1)*%
X111226000Y-134470200D03*
D15*
%TO.P,S1,2*%
%TO.N,GND*%
X106726000Y-134470200D03*
%TO.P,S1,3*%
%TO.N,+3.3V*%
X111226000Y-140970200D03*
%TO.P,S1,4*%
%TO.N,GND*%
X106726000Y-140970200D03*
%TD*%
D16*
%TO.P,D3,1,K*%
%TO.N,Net-(D3-K)*%
X94811000Y-141450200D03*
D17*
%TO.P,D3,2,A*%
%TO.N,GND*%
X94811000Y-143990200D03*
%TD*%
D11*
%TO.P,U8,A*%
%TO.N,Net-(R4-Pad2)*%
X176872000Y-81193600D03*
%TO.P,U8,CATH*%
%TO.N,GND*%
X179412000Y-81193600D03*
%TO.P,U8,COLL*%
%TO.N,Net-(R14-Pad1)*%
X176872000Y-86693600D03*
%TO.P,U8,E*%
%TO.N,GND*%
X179412000Y-86693600D03*
%TD*%
D12*
%TO.P,C2,N*%
%TO.N,GND*%
X151662000Y-84693600D03*
D13*
%TO.P,C2,P*%
%TO.N,+7.5V*%
X149162000Y-84693600D03*
%TD*%
D18*
%TO.P,U3,0,0*%
%TO.N,unconnected-(U3-Pad0)*%
X125792000Y-79723600D03*
%TO.P,U3,1,1*%
%TO.N,Net-(R10-Pad2)*%
X125792000Y-82263600D03*
%TO.P,U3,2,2*%
%TO.N,Net-(U4-PWMA)*%
X125792000Y-84803600D03*
%TO.P,U3,3,3*%
%TO.N,Net-(U4-PWMB)*%
X125792000Y-87343600D03*
%TO.P,U3,3.3V_1,3.3V_1*%
%TO.N,unconnected-(U3-Pad3.3V_1)*%
X130872000Y-110203600D03*
%TO.P,U3,3.3V_2,3.3V_2*%
%TO.N,+3.3V*%
X141032000Y-82263600D03*
%TO.P,U3,4,4*%
%TO.N,Net-(U4-AI1)*%
X125792000Y-89883600D03*
%TO.P,U3,5,5*%
%TO.N,Net-(U4-AI2)*%
X125792000Y-92423600D03*
%TO.P,U3,6,6*%
%TO.N,Net-(U4-BI1)*%
X125792000Y-94963600D03*
%TO.P,U3,7,7*%
%TO.N,Net-(U4-BI2)*%
X125792000Y-97503600D03*
%TO.P,U3,8,8*%
%TO.N,Net-(R12-Pad2)*%
X125792000Y-100043600D03*
%TO.P,U3,9,9*%
%TO.N,Net-(R8-Pad2)*%
X125792000Y-102583600D03*
%TO.P,U3,10,10*%
%TO.N,Net-(R13-Pad2)*%
X125792000Y-105123600D03*
%TO.P,U3,11,11*%
%TO.N,Net-(R14-Pad2)*%
X125792000Y-107663600D03*
%TO.P,U3,12,12*%
%TO.N,Net-(S1-Pad1)*%
X125792000Y-110203600D03*
%TO.P,U3,13,13*%
%TO.N,unconnected-(U3-Pad13)*%
X141032000Y-110203600D03*
%TO.P,U3,14,14*%
%TO.N,unconnected-(U3-Pad14)*%
X141032000Y-107663600D03*
%TO.P,U3,15,15*%
%TO.N,unconnected-(U3-Pad15)*%
X141032000Y-105123600D03*
%TO.P,U3,16,16*%
%TO.N,Net-(R11-Pad1)*%
X141032000Y-102583600D03*
%TO.P,U3,17,17*%
%TO.N,Net-(R7-Pad1)*%
X141032000Y-100043600D03*
%TO.P,U3,18,18*%
%TO.N,Net-(R6-Pad2)*%
X141032000Y-97503600D03*
%TO.P,U3,19,19*%
%TO.N,Net-(R5-Pad2)*%
X141032000Y-94963600D03*
%TO.P,U3,20,20*%
%TO.N,unconnected-(U3-Pad20)*%
X141032000Y-92423600D03*
%TO.P,U3,21,21*%
%TO.N,unconnected-(U3-Pad21)*%
X141032000Y-89883600D03*
%TO.P,U3,22,22*%
%TO.N,unconnected-(U3-Pad22)*%
X141032000Y-87343600D03*
%TO.P,U3,23,23*%
%TO.N,unconnected-(U3-Pad23)*%
X141032000Y-84803600D03*
%TO.P,U3,G1,G1*%
%TO.N,unconnected-(U3-PadG1)*%
X125792000Y-77183600D03*
%TO.P,U3,G2,G2*%
%TO.N,unconnected-(U3-PadG2)*%
X133412000Y-110203600D03*
%TO.P,U3,G3,G3*%
%TO.N,GND*%
X141032000Y-79723600D03*
%TO.P,U3,ON-OFF,ON/OFF*%
%TO.N,unconnected-(U3-ON{slash}OFF-PadON-OFF)*%
X138492000Y-110203600D03*
%TO.P,U3,PGM,PROGRAM*%
%TO.N,unconnected-(U3-PROGRAM-PadPGM)*%
X135952000Y-110203600D03*
%TO.P,U3,VBAT,VBAT*%
%TO.N,unconnected-(U3-PadVBAT)*%
X128332000Y-110203600D03*
%TO.P,U3,VIN,VIN*%
%TO.N,+5V*%
X141032000Y-77183600D03*
%TD*%
D19*
%TO.P,C9,1*%
%TO.N,+3.3V*%
X122372000Y-70193600D03*
%TO.P,C9,2*%
%TO.N,GND*%
X124912000Y-70193600D03*
%TD*%
D10*
%TO.P,R3,1*%
%TO.N,+3.3V*%
X154512000Y-51693600D03*
%TO.P,R3,2*%
%TO.N,Net-(R3-Pad2)*%
X156412000Y-51693600D03*
%TD*%
D20*
%TO.P,J4,1,Pin_1*%
%TO.N,+3.3V*%
X136452000Y-43193600D03*
D21*
%TO.P,J4,2,Pin_2*%
%TO.N,GND*%
X135182000Y-43193600D03*
%TO.P,J4,3,Pin_3*%
%TO.N,Net-(J4-Pin_3)*%
X133912000Y-43193600D03*
%TO.P,J4,4,Pin_4*%
%TO.N,Net-(J4-Pin_4)*%
X132642000Y-43193600D03*
%TO.P,J4,5,Pin_5*%
%TO.N,unconnected-(J4-Pin_5-Pad5)*%
X131372000Y-43193600D03*
%TO.P,J4,6,Pin_6*%
%TO.N,unconnected-(J4-Pin_6-Pad6)*%
X130102000Y-43193600D03*
%TD*%
D22*
%TO.P,J1,1,1*%
%TO.N,+7.5V*%
X116412000Y-144693600D03*
D23*
%TO.P,J1,2,2*%
%TO.N,GND*%
X118912000Y-144693600D03*
%TD*%
D11*
%TO.P,U6,A*%
%TO.N,Net-(R2-Pad2)*%
X87192000Y-81293600D03*
%TO.P,U6,CATH*%
%TO.N,GND*%
X89732000Y-81293600D03*
%TO.P,U6,COLL*%
%TO.N,Net-(R13-Pad1)*%
X87192000Y-86793600D03*
%TO.P,U6,E*%
%TO.N,GND*%
X89732000Y-86793600D03*
%TD*%
D16*
%TO.P,D1,1,K*%
%TO.N,Net-(D1-K)*%
X175077000Y-144463600D03*
D17*
%TO.P,D1,2,A*%
%TO.N,GND*%
X175077000Y-141923600D03*
%TD*%
D24*
%TO.P,J3,1,1*%
%TO.N,Net-(U4-B01)*%
X160944000Y-98037200D03*
D25*
%TO.P,J3,2,2*%
%TO.N,Net-(U4-B02)*%
X160944000Y-96037200D03*
%TD*%
D19*
%TO.P,C7,1*%
%TO.N,GND*%
X134372000Y-47693600D03*
%TO.P,C7,2*%
%TO.N,+3.3V*%
X136912000Y-47693600D03*
%TD*%
D26*
%TO.P,U1,1,ADJ/GND*%
%TO.N,GND*%
X112502000Y-74760200D03*
%TO.P,U1,2,OUTPUT*%
%TO.N,+3.3V*%
X112502000Y-72220200D03*
%TO.P,U1,3,INPUT*%
%TO.N,+7.5V*%
X112502000Y-69680200D03*
%TD*%
%TO.P,Q1,1,IN*%
%TO.N,+7.5V*%
X153955700Y-66180200D03*
%TO.P,Q1,2,GND*%
%TO.N,GND*%
X153955700Y-68720200D03*
%TO.P,Q1,3,OUT*%
%TO.N,+5V*%
X153955700Y-71260200D03*
%TD*%
D10*
%TO.P,R12,1*%
%TO.N,Net-(R12-Pad1)*%
X103976000Y-63315200D03*
%TO.P,R12,2*%
%TO.N,Net-(R12-Pad2)*%
X103976000Y-65215200D03*
%TD*%
D27*
%TO.P,ACC1,AD0,AD0*%
%TO.N,unconnected-(ACC1-PadAD0)*%
X139372000Y-65475200D03*
%TO.P,ACC1,GND,GND*%
%TO.N,GND*%
X126672000Y-65475200D03*
%TO.P,ACC1,INT,INT*%
%TO.N,unconnected-(ACC1-PadINT)*%
X141912000Y-65475200D03*
%TO.P,ACC1,SCL,SCL*%
%TO.N,Net-(ACC1-PadSCL)*%
X129212000Y-65475200D03*
%TO.P,ACC1,SDA,SDA*%
%TO.N,Net-(ACC1-PadSDA)*%
X131752000Y-65475200D03*
%TO.P,ACC1,VCC,VCC*%
%TO.N,+3.3V*%
X124132000Y-65475200D03*
%TO.P,ACC1,XCL,XCL*%
%TO.N,unconnected-(ACC1-PadXCL)*%
X136832000Y-65475200D03*
%TO.P,ACC1,XDA,XDA*%
%TO.N,unconnected-(ACC1-PadXDA)*%
X134292000Y-65475200D03*
%TD*%
D28*
%TO.P,J2,1,1*%
%TO.N,Net-(U4-A01)*%
X106412000Y-96193600D03*
D25*
%TO.P,J2,2,2*%
%TO.N,Net-(U4-A02)*%
X106412000Y-98193600D03*
%TD*%
D10*
%TO.P,R1,1*%
%TO.N,+3.3V*%
X96512000Y-56193600D03*
%TO.P,R1,2*%
%TO.N,Net-(R1-Pad2)*%
X98412000Y-56193600D03*
%TD*%
D12*
%TO.P,C5,N*%
%TO.N,GND*%
X147976000Y-70720200D03*
D13*
%TO.P,C5,P*%
%TO.N,+5V*%
X147976000Y-73220200D03*
%TD*%
D12*
%TO.P,C6,N*%
%TO.N,GND*%
X117976000Y-76220200D03*
D13*
%TO.P,C6,P*%
%TO.N,+3.3V*%
X117976000Y-73720200D03*
%TD*%
D10*
%TO.P,R5,1*%
%TO.N,Net-(ACC1-PadSCL)*%
X130412000Y-69288600D03*
%TO.P,R5,2*%
%TO.N,Net-(R5-Pad2)*%
X130412000Y-71188600D03*
%TD*%
%TO.P,R13,1*%
%TO.N,Net-(R13-Pad1)*%
X104576000Y-88220200D03*
%TO.P,R13,2*%
%TO.N,Net-(R13-Pad2)*%
X106476000Y-88220200D03*
%TD*%
D29*
%TO.P,U4,1,VM*%
%TO.N,+7.5V*%
X126292000Y-119303600D03*
%TO.P,U4,2,VCC*%
%TO.N,+5V*%
X126292000Y-121843600D03*
%TO.P,U4,3,GND*%
%TO.N,GND*%
X126292000Y-124383600D03*
%TO.P,U4,4,A01*%
%TO.N,Net-(U4-A01)*%
X126292000Y-126923600D03*
%TO.P,U4,5,A02*%
%TO.N,Net-(U4-A02)*%
X126292000Y-129463600D03*
%TO.P,U4,6,B02*%
%TO.N,Net-(U4-B02)*%
X126292000Y-132003600D03*
%TO.P,U4,7,B01*%
%TO.N,Net-(U4-B01)*%
X126292000Y-134543600D03*
%TO.P,U4,8,GND*%
%TO.N,GND*%
X126292000Y-137083600D03*
%TO.P,U4,9,GND*%
X141532000Y-137083600D03*
%TO.P,U4,10,PWMB*%
%TO.N,Net-(U4-PWMB)*%
X141532000Y-134543600D03*
%TO.P,U4,11,BI2*%
%TO.N,Net-(U4-BI2)*%
X141532000Y-132003600D03*
%TO.P,U4,12,BI1*%
%TO.N,Net-(U4-BI1)*%
X141532000Y-129463600D03*
%TO.P,U4,13,STBY*%
%TO.N,unconnected-(U4-STBY-Pad13)*%
X141532000Y-126923600D03*
%TO.P,U4,14,AI1*%
%TO.N,Net-(U4-AI1)*%
X141532000Y-124383600D03*
%TO.P,U4,15,AI2*%
%TO.N,Net-(U4-AI2)*%
X141532000Y-121843600D03*
%TO.P,U4,16,PWMA*%
%TO.N,Net-(U4-PWMA)*%
X141532000Y-119303600D03*
%TD*%
D12*
%TO.P,C3,N*%
%TO.N,GND*%
X116412000Y-94693600D03*
D13*
%TO.P,C3,P*%
%TO.N,+7.5V*%
X113912000Y-94693600D03*
%TD*%
D10*
%TO.P,R10,1*%
%TO.N,Net-(D3-K)*%
X98507000Y-141693600D03*
%TO.P,R10,2*%
%TO.N,Net-(R10-Pad2)*%
X100407000Y-141693600D03*
%TD*%
D30*
%TO.N,*%
X146412000Y-89693600D03*
%TO.N,GND*%
X164976000Y-140720200D03*
%TO.N,+7.5V*%
X126412000Y-115193600D03*
X118412000Y-123693600D03*
X119412000Y-118693600D03*
%TO.N,Net-(S1-Pad1)*%
X112412000Y-117193600D03*
%TO.N,Net-(J4-Pin_4)*%
X132476000Y-40693600D03*
%TO.N,Net-(R6-Pad2)*%
X134912000Y-92193600D03*
%TO.N,Net-(R8-Pad2)*%
X159412000Y-87693600D03*
%TO.N,Net-(U4-AI1)*%
X144412000Y-91193600D03*
%TO.N,Net-(U4-AI2)*%
X136412000Y-108193600D03*
%TO.N,Net-(U4-BI2)*%
X129412000Y-107193600D03*
%TO.N,Net-(U4-BI1)*%
X132412000Y-113693600D03*
%TO.N,Net-(R10-Pad2)*%
X119412000Y-94193600D03*
X110912000Y-116193600D03*
%TO.N,Net-(R11-Pad1)*%
X129412000Y-57693600D03*
X128412000Y-61693600D03*
%TO.N,Net-(R14-Pad2)*%
X155912000Y-91693600D03*
%TD*%
D31*
%TO.N,+3.3V*%
X115226000Y-65470200D02*
X109430700Y-59674900D01*
X117726000Y-73470200D02*
X117726000Y-65470200D01*
D32*
X100476000Y-80589046D02*
X100476000Y-63804200D01*
X110476000Y-90589046D02*
X100476000Y-80589046D01*
X99412000Y-62740200D02*
X101432000Y-60720200D01*
X87412000Y-74788600D02*
X89976000Y-72224600D01*
X154512000Y-51693600D02*
X151176713Y-48358313D01*
X136912000Y-46653600D02*
X136912000Y-47693600D01*
X117976000Y-65220200D02*
X117976000Y-73720200D01*
X104190601Y-133934801D02*
X104190601Y-123980468D01*
D31*
X117726000Y-73470200D02*
X117976000Y-73720200D01*
D32*
X136452000Y-46193600D02*
X136912000Y-46653600D01*
X100476000Y-63804200D02*
X99412000Y-62740200D01*
X89976000Y-72224600D02*
X89976000Y-66220200D01*
D31*
X117726000Y-65470200D02*
X117976000Y-65220200D01*
D32*
X111226000Y-140970200D02*
X104190601Y-133934801D01*
X89976000Y-66220200D02*
X93456000Y-62740200D01*
X104190601Y-123980468D02*
X111665399Y-116505669D01*
X136452000Y-43193600D02*
X136452000Y-46193600D01*
X101432000Y-60720200D02*
X108385400Y-60720200D01*
X130412000Y-38693600D02*
X136412000Y-38693600D01*
X104476000Y-107720200D02*
X104476000Y-103720200D01*
X124172000Y-68353600D02*
X122332000Y-70193600D01*
X136912000Y-47693600D02*
X137631400Y-48413000D01*
X109430700Y-59674900D02*
X130412000Y-38693600D01*
X137631400Y-53974200D02*
X132412000Y-59193600D01*
X111665400Y-114909600D02*
X104476000Y-107720200D01*
X154512000Y-51693600D02*
X153912000Y-51693600D01*
X124172000Y-65475200D02*
X124172000Y-68353600D01*
X104476000Y-103720200D02*
X110476000Y-97720200D01*
D31*
X117726000Y-65470200D02*
X115226000Y-65470200D01*
D32*
X132412000Y-59193600D02*
X124002600Y-59193600D01*
X151176713Y-48358313D02*
X146076713Y-48358313D01*
X96512000Y-59840200D02*
X99412000Y-62740200D01*
X96512000Y-59840200D02*
X96512000Y-56193600D01*
X124002600Y-59193600D02*
X117976000Y-65220200D01*
X136412000Y-38693600D02*
X146076713Y-48358313D01*
X111665399Y-116505669D02*
X111665400Y-114909600D01*
X110476000Y-97720200D02*
X110476000Y-90589046D01*
X137631400Y-48413000D02*
X137631400Y-53974200D01*
D31*
X116476000Y-72220200D02*
X117726000Y-73470200D01*
D32*
X108385400Y-60720200D02*
X109430700Y-59674900D01*
X93456000Y-62740200D02*
X99412000Y-62740200D01*
D31*
X112502000Y-72220200D02*
X116476000Y-72220200D01*
D32*
%TO.N,Net-(ACC1-PadSCL)*%
X130412000Y-66675200D02*
X130412000Y-69288600D01*
X129212000Y-65475200D02*
X130412000Y-66675200D01*
%TO.N,GND*%
X166179400Y-141923600D02*
X159699400Y-135443600D01*
D31*
X118885400Y-76220200D02*
X124912000Y-70193600D01*
X117976000Y-81129600D02*
X116412000Y-82693600D01*
D32*
X164812000Y-57293600D02*
X163232000Y-57293600D01*
D31*
X159976000Y-68720200D02*
X153955700Y-68720200D01*
X117976000Y-76220200D02*
X118885400Y-76220200D01*
X160976000Y-78629600D02*
X160976000Y-69720200D01*
X153444000Y-132225600D02*
X156662000Y-135443600D01*
D32*
X135182000Y-43193600D02*
X135182000Y-46883600D01*
D31*
X160976000Y-69720200D02*
X159976000Y-68720200D01*
D32*
X94811000Y-143990200D02*
X101706000Y-143990200D01*
X135182000Y-46883600D02*
X134372000Y-47693600D01*
D31*
X116412000Y-94693600D02*
X116412000Y-82693600D01*
D32*
X101706000Y-143990200D02*
X104726000Y-140970200D01*
X179412000Y-81193600D02*
X180912000Y-81193600D01*
X166476000Y-141923600D02*
X166179400Y-141923600D01*
X91812000Y-86793600D02*
X89732000Y-86793600D01*
D31*
X154912000Y-84693600D02*
X160976000Y-78629600D01*
X121944000Y-100225600D02*
X121944000Y-120037200D01*
D32*
X165912000Y-56193600D02*
X164812000Y-57293600D01*
D31*
X121944000Y-136725600D02*
X118912000Y-139757600D01*
D32*
X92512000Y-81293600D02*
X92912000Y-81693600D01*
X182412000Y-85693600D02*
X181412000Y-86693600D01*
D31*
X151412000Y-94693600D02*
X154100400Y-94693600D01*
X151412000Y-84943600D02*
X151662000Y-84693600D01*
D32*
X163232000Y-51793600D02*
X165012000Y-51793600D01*
D31*
X154100400Y-94693600D02*
X161821777Y-102414977D01*
X124912000Y-70193600D02*
X126672000Y-68433600D01*
X116412000Y-94693600D02*
X121944000Y-100225600D01*
D32*
X92912000Y-81693600D02*
X92912000Y-85693600D01*
D31*
X151412000Y-94693600D02*
X151412000Y-84943600D01*
X147976000Y-70720200D02*
X149976000Y-68720200D01*
D32*
X109412000Y-51693600D02*
X109912000Y-52193600D01*
D31*
X112502000Y-78783600D02*
X116412000Y-82693600D01*
D32*
X182412000Y-82693600D02*
X182412000Y-85693600D01*
X109912000Y-56193600D02*
X108912000Y-57193600D01*
D31*
X112502000Y-74760200D02*
X112502000Y-78783600D01*
D32*
X109912000Y-52193600D02*
X109912000Y-56193600D01*
X92912000Y-85693600D02*
X91812000Y-86793600D01*
D31*
X153444000Y-118792754D02*
X153444000Y-132225600D01*
X118912000Y-139757600D02*
X118912000Y-144693600D01*
D32*
X126292000Y-124383600D02*
X123102000Y-121193600D01*
X89732000Y-81293600D02*
X92512000Y-81293600D01*
X123102000Y-121193600D02*
X123100400Y-121193600D01*
D31*
X121944000Y-120037200D02*
X121944000Y-136725600D01*
D32*
X108912000Y-57193600D02*
X106412000Y-57193600D01*
D31*
X149976000Y-68720200D02*
X153955700Y-68720200D01*
D32*
X159699400Y-135443600D02*
X156662000Y-135443600D01*
D31*
X151662000Y-84693600D02*
X154912000Y-84693600D01*
D32*
X141532000Y-137083600D02*
X126292000Y-137083600D01*
D31*
X161821777Y-102414977D02*
X161821777Y-110414977D01*
D32*
X181412000Y-86693600D02*
X179412000Y-86693600D01*
D31*
X117976000Y-76220200D02*
X117976000Y-81129600D01*
X121944000Y-136725600D02*
X122302000Y-137083600D01*
D32*
X123100400Y-121193600D02*
X121944000Y-120037200D01*
X180912000Y-81193600D02*
X182412000Y-82693600D01*
D31*
X126672000Y-68433600D02*
X126672000Y-65475200D01*
D32*
X175077000Y-141923600D02*
X166476000Y-141923600D01*
X165912000Y-52693600D02*
X165912000Y-56193600D01*
X104726000Y-140970200D02*
X106726000Y-140970200D01*
D31*
X122302000Y-137083600D02*
X126292000Y-137083600D01*
X161821777Y-110414977D02*
X153444000Y-118792754D01*
D32*
X106412000Y-51693600D02*
X109412000Y-51693600D01*
X165012000Y-51793600D02*
X165912000Y-52693600D01*
%TO.N,Net-(ACC1-PadSDA)*%
X133412000Y-68788600D02*
X132507000Y-68788600D01*
X132507000Y-68788600D02*
X131792000Y-68073600D01*
X131792000Y-68073600D02*
X131792000Y-65475200D01*
D31*
%TO.N,+7.5V*%
X107516000Y-69680200D02*
X112502000Y-69680200D01*
X105976000Y-71220200D02*
X107516000Y-69680200D01*
X122476000Y-142720200D02*
X122476000Y-147220200D01*
X116412000Y-135193600D02*
X116412000Y-144693600D01*
X113912000Y-82693600D02*
X109949400Y-82693600D01*
X147412000Y-133693600D02*
X152912000Y-133693600D01*
X154476000Y-141943600D02*
X162699400Y-141943600D01*
X109949400Y-82693600D02*
X105976000Y-78720200D01*
X154207300Y-141674900D02*
X154476000Y-141943600D01*
X113444000Y-132225600D02*
X116412000Y-135193600D01*
X105976000Y-78720200D02*
X105976000Y-71220200D01*
X153444000Y-116456900D02*
X145412000Y-124488900D01*
D32*
X118412000Y-119693600D02*
X119412000Y-118693600D01*
D31*
X152912000Y-133693600D02*
X154207300Y-134988900D01*
X118938600Y-147220200D02*
X116412000Y-144693600D01*
X122476000Y-147220200D02*
X118938600Y-147220200D01*
X149162000Y-94443600D02*
X148912000Y-94693600D01*
X162699400Y-141943600D02*
X164949400Y-144193600D01*
X113444000Y-95161600D02*
X113444000Y-132225600D01*
X149162000Y-84693600D02*
X149162000Y-94443600D01*
X113912000Y-94693600D02*
X113444000Y-95161600D01*
X145412000Y-124488900D02*
X145412000Y-131693600D01*
D32*
X118412000Y-123693600D02*
X118412000Y-119693600D01*
D31*
X126292000Y-119303600D02*
X126292000Y-115313600D01*
X154207300Y-134988900D02*
X154207300Y-141674900D01*
X148912000Y-96693600D02*
X153444000Y-101225600D01*
X153444000Y-101225600D02*
X153444000Y-116456900D01*
X126292000Y-115313600D02*
X126412000Y-115193600D01*
X145412000Y-131693600D02*
X147412000Y-133693600D01*
X164949400Y-144193600D02*
X169507000Y-144193600D01*
X113912000Y-94693600D02*
X113912000Y-82693600D01*
X154207300Y-134988900D02*
X154412000Y-135193600D01*
X123252600Y-141943600D02*
X122476000Y-142720200D01*
X148912000Y-94693600D02*
X148912000Y-96693600D01*
X123252600Y-141943600D02*
X154476000Y-141943600D01*
%TO.N,+5V*%
X149936000Y-71260200D02*
X147976000Y-73220200D01*
D33*
X126292000Y-121843600D02*
X137185569Y-110950031D01*
X137185569Y-106420031D02*
X139912000Y-103693600D01*
X137185569Y-110950031D02*
X137185569Y-106420031D01*
D31*
X141032000Y-77183600D02*
X144012600Y-77183600D01*
D33*
X143412000Y-103693600D02*
X143412000Y-84138600D01*
X147830400Y-79720200D02*
X147830400Y-75074600D01*
X147830400Y-75074600D02*
X146976000Y-74220200D01*
D31*
X144012600Y-77183600D02*
X146976000Y-74220200D01*
D33*
X147830400Y-79720200D02*
X147884500Y-79666100D01*
D31*
X146976000Y-74220200D02*
X147976000Y-73220200D01*
D33*
X143412000Y-84138600D02*
X147830400Y-79720200D01*
D31*
X153955700Y-71260200D02*
X149936000Y-71260200D01*
D33*
X139912000Y-103693600D02*
X143412000Y-103693600D01*
D32*
%TO.N,Net-(D1-K)*%
X171677000Y-144463600D02*
X171407000Y-144193600D01*
X175077000Y-144463600D02*
X171677000Y-144463600D01*
D31*
%TO.N,Net-(D3-K)*%
X94811000Y-141450200D02*
X98263600Y-141450200D01*
X98263600Y-141450200D02*
X98507000Y-141693600D01*
D32*
%TO.N,Net-(S1-Pad1)*%
X109261000Y-132505200D02*
X105912000Y-132505200D01*
X104944000Y-124661600D02*
X112412000Y-117193600D01*
X111226000Y-134470200D02*
X109261000Y-132505200D01*
X104944000Y-131537200D02*
X104944000Y-124661600D01*
X104944000Y-131537200D02*
X105912000Y-132505200D01*
D33*
%TO.N,Net-(J4-Pin_3)*%
X133912000Y-43193600D02*
X133912000Y-45693600D01*
X132912000Y-45693600D02*
X131412000Y-47193600D01*
X133912000Y-45693600D02*
X132912000Y-45693600D01*
%TO.N,Net-(J4-Pin_4)*%
X128412000Y-45193600D02*
X128412000Y-47198600D01*
X128912000Y-44693600D02*
X128412000Y-45193600D01*
X132476000Y-40693600D02*
X131036747Y-40693600D01*
X131036747Y-40693600D02*
X128912000Y-42818347D01*
X128912000Y-42818347D02*
X128912000Y-44693600D01*
D32*
%TO.N,Net-(R1-Pad2)*%
X103872000Y-51693600D02*
X102912000Y-51693600D01*
X102912000Y-51693600D02*
X98412000Y-56193600D01*
%TO.N,Net-(R2-Pad2)*%
X87192000Y-81293600D02*
X87412000Y-81073600D01*
X87412000Y-81073600D02*
X87412000Y-77193600D01*
%TO.N,Net-(R3-Pad2)*%
X160592000Y-51693600D02*
X160692000Y-51793600D01*
X156412000Y-51693600D02*
X160592000Y-51693600D01*
%TO.N,Net-(R4-Pad2)*%
X176412000Y-80733600D02*
X176872000Y-81193600D01*
X176412000Y-76193600D02*
X176412000Y-80733600D01*
D33*
%TO.N,Net-(R5-Pad2)*%
X130412000Y-70563600D02*
X130412000Y-90863836D01*
X141453836Y-101062000D02*
X142050400Y-100465436D01*
X140610164Y-101062000D02*
X141453836Y-101062000D01*
X142050400Y-100465436D02*
X142050400Y-95982000D01*
X130412000Y-90863836D02*
X140610164Y-101062000D01*
X142050400Y-95982000D02*
X141032000Y-94963600D01*
%TO.N,Net-(R6-Pad2)*%
X132912000Y-70563600D02*
X132912000Y-71693600D01*
X132912000Y-71693600D02*
X132912000Y-71188600D01*
X132912000Y-71693600D02*
X132912000Y-90193600D01*
X132912000Y-90193600D02*
X134912000Y-92193600D01*
X132912000Y-71188600D02*
X133412000Y-70688600D01*
%TO.N,Net-(R7-Pad1)*%
X130414069Y-48095669D02*
X131412000Y-49093600D01*
X138184800Y-97196400D02*
X141032000Y-100043600D01*
X137205400Y-42440200D02*
X139314400Y-44549200D01*
X129348600Y-43505669D02*
X129348600Y-42881531D01*
X130414069Y-44571138D02*
X129348600Y-43505669D01*
X138184800Y-49680418D02*
X138184800Y-97196400D01*
X139314400Y-44549200D02*
X139314400Y-48550818D01*
X139314400Y-48550818D02*
X138184800Y-49680418D01*
X129789931Y-42440200D02*
X137205400Y-42440200D01*
X130414069Y-44571138D02*
X130414069Y-48095669D01*
X129348600Y-42881531D02*
X129789931Y-42440200D01*
%TO.N,Net-(R8-Pad1)*%
X148976000Y-60720200D02*
X152402600Y-57293600D01*
X152402600Y-57293600D02*
X160692000Y-57293600D01*
%TO.N,Net-(R8-Pad2)*%
X163976000Y-83129600D02*
X163976000Y-65720200D01*
X163976000Y-65720200D02*
X158976000Y-60720200D01*
X158976000Y-60720200D02*
X150876000Y-60720200D01*
X159412000Y-87693600D02*
X163976000Y-83129600D01*
%TO.N,Net-(U4-AI1)*%
X144912000Y-91693600D02*
X144412000Y-91193600D01*
X144912000Y-121003600D02*
X144912000Y-91693600D01*
X141532000Y-124383600D02*
X144912000Y-121003600D01*
%TO.N,Net-(U4-AI2)*%
X125792000Y-92423600D02*
X136412000Y-103043600D01*
X136412000Y-103043600D02*
X136412000Y-108193600D01*
%TO.N,Net-(U4-BI2)*%
X129412000Y-101123600D02*
X129412000Y-107193600D01*
X125792000Y-97503600D02*
X129412000Y-101123600D01*
%TO.N,Net-(U4-PWMA)*%
X124773600Y-122082574D02*
X124773600Y-85822000D01*
X124773600Y-85822000D02*
X125792000Y-84803600D01*
X125778026Y-123087000D02*
X124773600Y-122082574D01*
X137748600Y-123087000D02*
X125778026Y-123087000D01*
X141532000Y-119303600D02*
X137748600Y-123087000D01*
%TO.N,Net-(U4-BI1)*%
X125792000Y-94963600D02*
X132177108Y-101348708D01*
X132177108Y-113458708D02*
X132412000Y-113693600D01*
X132177108Y-101348708D02*
X132177108Y-113458708D01*
%TO.N,unconnected-(U4-STBY-Pad13)*%
X147412000Y-121043600D02*
X147412000Y-117693600D01*
X141532000Y-126923600D02*
X145412000Y-123043600D01*
X145912000Y-114693600D02*
X145412000Y-114193600D01*
X147412000Y-116193600D02*
X145912000Y-114693600D01*
X145412000Y-114193600D02*
X145412000Y-94693600D01*
X147412000Y-117693600D02*
X147412000Y-116193600D01*
X145412000Y-123043600D02*
X147412000Y-121043600D01*
D32*
%TO.N,Net-(R10-Pad2)*%
X103412000Y-123693600D02*
X110912000Y-116193600D01*
X103412000Y-139193600D02*
X103412000Y-123693600D01*
X100912000Y-141693600D02*
X103412000Y-139193600D01*
D33*
X119412000Y-94193600D02*
X119412000Y-88643600D01*
X119412000Y-88643600D02*
X125792000Y-82263600D01*
%TO.N,Net-(R11-Pad1)*%
X129412000Y-57693600D02*
X129412000Y-50098600D01*
X128698600Y-90250200D02*
X128698600Y-67980200D01*
X141032000Y-102583600D02*
X128698600Y-90250200D01*
X128698600Y-67980200D02*
X127912000Y-67193600D01*
X127912000Y-62193600D02*
X128412000Y-61693600D01*
X129412000Y-50098600D02*
X128412000Y-49098600D01*
X127912000Y-67193600D02*
X127912000Y-62193600D01*
D32*
%TO.N,Net-(R13-Pad1)*%
X101905400Y-90890800D02*
X104576000Y-88220200D01*
X91289200Y-90890800D02*
X101905400Y-90890800D01*
X87192000Y-86793600D02*
X91289200Y-90890800D01*
D33*
%TO.N,Net-(R14-Pad2)*%
X162481000Y-89720200D02*
X157885400Y-89720200D01*
X157885400Y-89720200D02*
X155912000Y-91693600D01*
%TO.N,Net-(R14-Pad1)*%
X176872000Y-88824200D02*
X174976000Y-90720200D01*
X174976000Y-90720200D02*
X165381000Y-90720200D01*
X165381000Y-90720200D02*
X164381000Y-89720200D01*
X176872000Y-86693600D02*
X176872000Y-88824200D01*
%TD*%
M02*
