%TF.GenerationSoftware,KiCad,Pcbnew,9.0.2*%
%TF.CreationDate,2025-07-24T10:13:15+05:30*%
%TF.ProjectId,v2 mouse,7632206d-6f75-4736-952e-6b696361645f,rev?*%
%TF.SameCoordinates,Original*%
%TF.FileFunction,Copper,L2,Bot*%
%TF.FilePolarity,Positive*%
%FSLAX46Y46*%
G04 Gerber Fmt 4.6, Leading zero omitted, Abs format (unit mm)*
G04 Created by KiCad (PCBNEW 9.0.2) date 2025-07-24 10:13:15*
%MOMM*%
%LPD*%
G01*
G04 APERTURE LIST*
G04 Aperture macros list*
%AMRoundRect*
0 Rectangle with rounded corners*
0 $1 Rounding radius*
0 $2 $3 $4 $5 $6 $7 $8 $9 X,Y pos of 4 corners*
0 Add a 4 corners polygon primitive as box body*
4,1,4,$2,$3,$4,$5,$6,$7,$8,$9,$2,$3,0*
0 Add four circle primitives for the rounded corners*
1,1,$1+$1,$2,$3*
1,1,$1+$1,$4,$5*
1,1,$1+$1,$6,$7*
1,1,$1+$1,$8,$9*
0 Add four rect primitives between the rounded corners*
20,1,$1+$1,$2,$3,$4,$5,0*
20,1,$1+$1,$4,$5,$6,$7,0*
20,1,$1+$1,$6,$7,$8,$9,0*
20,1,$1+$1,$8,$9,$2,$3,0*%
G04 Aperture macros list end*
%TA.AperFunction,ComponentPad*%
%ADD10C,1.400000*%
%TD*%
%TA.AperFunction,ComponentPad*%
%ADD11C,1.500000*%
%TD*%
%TA.AperFunction,ComponentPad*%
%ADD12C,1.100000*%
%TD*%
%TA.AperFunction,ComponentPad*%
%ADD13R,1.100000X1.100000*%
%TD*%
%TA.AperFunction,ComponentPad*%
%ADD14R,1.498000X1.498000*%
%TD*%
%TA.AperFunction,ComponentPad*%
%ADD15C,1.498000*%
%TD*%
%TA.AperFunction,ComponentPad*%
%ADD16R,1.800000X1.800000*%
%TD*%
%TA.AperFunction,ComponentPad*%
%ADD17C,1.800000*%
%TD*%
%TA.AperFunction,ComponentPad*%
%ADD18C,1.530000*%
%TD*%
%TA.AperFunction,ComponentPad*%
%ADD19C,1.210000*%
%TD*%
%TA.AperFunction,ComponentPad*%
%ADD20R,1.000000X1.000000*%
%TD*%
%TA.AperFunction,ComponentPad*%
%ADD21C,1.000000*%
%TD*%
%TA.AperFunction,ComponentPad*%
%ADD22RoundRect,0.250000X-0.600000X-0.750000X0.600000X-0.750000X0.600000X0.750000X-0.600000X0.750000X0*%
%TD*%
%TA.AperFunction,ComponentPad*%
%ADD23O,1.700000X2.000000*%
%TD*%
%TA.AperFunction,ComponentPad*%
%ADD24RoundRect,0.250000X0.625000X-0.350000X0.625000X0.350000X-0.625000X0.350000X-0.625000X-0.350000X0*%
%TD*%
%TA.AperFunction,ComponentPad*%
%ADD25O,1.750000X1.200000*%
%TD*%
%TA.AperFunction,ComponentPad*%
%ADD26O,3.352800X1.676400*%
%TD*%
%TA.AperFunction,ComponentPad*%
%ADD27O,1.500000X3.000000*%
%TD*%
%TA.AperFunction,ComponentPad*%
%ADD28RoundRect,0.250000X-0.625000X0.350000X-0.625000X-0.350000X0.625000X-0.350000X0.625000X0.350000X0*%
%TD*%
%TA.AperFunction,ComponentPad*%
%ADD29C,1.980000*%
%TD*%
%TA.AperFunction,ViaPad*%
%ADD30C,0.600000*%
%TD*%
%TA.AperFunction,Conductor*%
%ADD31C,0.600000*%
%TD*%
%TA.AperFunction,Conductor*%
%ADD32C,1.000000*%
%TD*%
%TA.AperFunction,Conductor*%
%ADD33C,0.200000*%
%TD*%
G04 APERTURE END LIST*
D10*
%TO.P,R6,1*%
%TO.N,Net-(ACC1-PadSDA)*%
X133412000Y-68788600D03*
%TO.P,R6,2*%
%TO.N,Net-(R6-Pad2)*%
X133412000Y-70688600D03*
%TD*%
%TO.P,R11,1*%
%TO.N,Net-(R11-Pad1)*%
X128412000Y-49098600D03*
%TO.P,R11,2*%
%TO.N,Net-(J4-Pin_4)*%
X128412000Y-47198600D03*
%TD*%
%TO.P,R14,1*%
%TO.N,Net-(R14-Pad1)*%
X164381000Y-89720200D03*
%TO.P,R14,2*%
%TO.N,Net-(R14-Pad2)*%
X162481000Y-89720200D03*
%TD*%
%TO.P,R7,1*%
%TO.N,Net-(R7-Pad1)*%
X131412000Y-49093600D03*
%TO.P,R7,2*%
%TO.N,Net-(J4-Pin_3)*%
X131412000Y-47193600D03*
%TD*%
%TO.P,R2,1*%
%TO.N,+3.3V*%
X87412000Y-74788600D03*
%TO.P,R2,2*%
%TO.N,Net-(R2-Pad2)*%
X87412000Y-76688600D03*
%TD*%
%TO.P,R4,1*%
%TO.N,+3.3V*%
X174512000Y-76193600D03*
%TO.P,R4,2*%
%TO.N,Net-(R4-Pad2)*%
X176412000Y-76193600D03*
%TD*%
D11*
%TO.P,U7,A*%
%TO.N,Net-(R3-Pad2)*%
X160692000Y-51793600D03*
%TO.P,U7,CATH*%
%TO.N,GND*%
X163232000Y-51793600D03*
%TO.P,U7,COLL*%
%TO.N,Net-(R8-Pad1)*%
X160692000Y-57293600D03*
%TO.P,U7,E*%
%TO.N,GND*%
X163232000Y-57293600D03*
%TD*%
D12*
%TO.P,C1,N*%
%TO.N,GND*%
X151412000Y-94693600D03*
D13*
%TO.P,C1,P*%
%TO.N,+7.5V*%
X148912000Y-94693600D03*
%TD*%
D10*
%TO.P,R9,1*%
%TO.N,+7.5V*%
X169507000Y-144193600D03*
%TO.P,R9,2*%
%TO.N,Net-(D1-K)*%
X171407000Y-144193600D03*
%TD*%
%TO.P,R8,1*%
%TO.N,Net-(R8-Pad1)*%
X148976000Y-60720200D03*
%TO.P,R8,2*%
%TO.N,Net-(R8-Pad2)*%
X150876000Y-60720200D03*
%TD*%
D12*
%TO.P,C4,N*%
%TO.N,GND*%
X116412000Y-82693600D03*
D13*
%TO.P,C4,P*%
%TO.N,+7.5V*%
X113912000Y-82693600D03*
%TD*%
D11*
%TO.P,U5,A*%
%TO.N,Net-(R1-Pad2)*%
X103872000Y-51693600D03*
%TO.P,U5,CATH*%
%TO.N,GND*%
X106412000Y-51693600D03*
%TO.P,U5,COLL*%
%TO.N,Net-(R12-Pad1)*%
X103872000Y-57193600D03*
%TO.P,U5,E*%
%TO.N,GND*%
X106412000Y-57193600D03*
%TD*%
D14*
%TO.P,S1,1*%
%TO.N,Net-(S1-Pad1)*%
X111226000Y-134470200D03*
D15*
%TO.P,S1,2*%
%TO.N,GND*%
X106726000Y-134470200D03*
%TO.P,S1,3*%
%TO.N,+3.3V*%
X111226000Y-140970200D03*
%TO.P,S1,4*%
%TO.N,GND*%
X106726000Y-140970200D03*
%TD*%
D16*
%TO.P,D3,1,K*%
%TO.N,Net-(D3-K)*%
X94811000Y-141450200D03*
D17*
%TO.P,D3,2,A*%
%TO.N,GND*%
X94811000Y-143990200D03*
%TD*%
D11*
%TO.P,U8,A*%
%TO.N,Net-(R4-Pad2)*%
X176872000Y-81193600D03*
%TO.P,U8,CATH*%
%TO.N,GND*%
X179412000Y-81193600D03*
%TO.P,U8,COLL*%
%TO.N,Net-(R14-Pad1)*%
X176872000Y-86693600D03*
%TO.P,U8,E*%
%TO.N,GND*%
X179412000Y-86693600D03*
%TD*%
D12*
%TO.P,C2,N*%
%TO.N,GND*%
X151662000Y-84693600D03*
D13*
%TO.P,C2,P*%
%TO.N,+7.5V*%
X149162000Y-84693600D03*
%TD*%
D18*
%TO.P,U3,0,0*%
%TO.N,unconnected-(U3-Pad0)*%
X125792000Y-79723600D03*
%TO.P,U3,1,1*%
%TO.N,Net-(R10-Pad2)*%
X125792000Y-82263600D03*
%TO.P,U3,2,2*%
%TO.N,Net-(U4-PWMA)*%
X125792000Y-84803600D03*
%TO.P,U3,3,3*%
%TO.N,Net-(U4-PWMB)*%
X125792000Y-87343600D03*
%TO.P,U3,3.3V_1,3.3V_1*%
%TO.N,unconnected-(U3-Pad3.3V_1)*%
X130872000Y-110203600D03*
%TO.P,U3,3.3V_2,3.3V_2*%
%TO.N,+3.3V*%
X141032000Y-82263600D03*
%TO.P,U3,4,4*%
%TO.N,Net-(U4-AI1)*%
X125792000Y-89883600D03*
%TO.P,U3,5,5*%
%TO.N,Net-(U4-AI2)*%
X125792000Y-92423600D03*
%TO.P,U3,6,6*%
%TO.N,Net-(U4-BI1)*%
X125792000Y-94963600D03*
%TO.P,U3,7,7*%
%TO.N,Net-(U4-BI2)*%
X125792000Y-97503600D03*
%TO.P,U3,8,8*%
%TO.N,Net-(R12-Pad2)*%
X125792000Y-100043600D03*
%TO.P,U3,9,9*%
%TO.N,Net-(R8-Pad2)*%
X125792000Y-102583600D03*
%TO.P,U3,10,10*%
%TO.N,Net-(R13-Pad2)*%
X125792000Y-105123600D03*
%TO.P,U3,11,11*%
%TO.N,Net-(R14-Pad2)*%
X125792000Y-107663600D03*
%TO.P,U3,12,12*%
%TO.N,Net-(S1-Pad1)*%
X125792000Y-110203600D03*
%TO.P,U3,13,13*%
%TO.N,unconnected-(U3-Pad13)*%
X141032000Y-110203600D03*
%TO.P,U3,14,14*%
%TO.N,unconnected-(U3-Pad14)*%
X141032000Y-107663600D03*
%TO.P,U3,15,15*%
%TO.N,unconnected-(U3-Pad15)*%
X141032000Y-105123600D03*
%TO.P,U3,16,16*%
%TO.N,Net-(R11-Pad1)*%
X141032000Y-102583600D03*
%TO.P,U3,17,17*%
%TO.N,Net-(R7-Pad1)*%
X141032000Y-100043600D03*
%TO.P,U3,18,18*%
%TO.N,Net-(R6-Pad2)*%
X141032000Y-97503600D03*
%TO.P,U3,19,19*%
%TO.N,Net-(R5-Pad2)*%
X141032000Y-94963600D03*
%TO.P,U3,20,20*%
%TO.N,unconnected-(U3-Pad20)*%
X141032000Y-92423600D03*
%TO.P,U3,21,21*%
%TO.N,unconnected-(U3-Pad21)*%
X141032000Y-89883600D03*
%TO.P,U3,22,22*%
%TO.N,unconnected-(U3-Pad22)*%
X141032000Y-87343600D03*
%TO.P,U3,23,23*%
%TO.N,unconnected-(U3-Pad23)*%
X141032000Y-84803600D03*
%TO.P,U3,G1,G1*%
%TO.N,unconnected-(U3-PadG1)*%
X125792000Y-77183600D03*
%TO.P,U3,G2,G2*%
%TO.N,unconnected-(U3-PadG2)*%
X133412000Y-110203600D03*
%TO.P,U3,G3,G3*%
%TO.N,GND*%
X141032000Y-79723600D03*
%TO.P,U3,ON-OFF,ON/OFF*%
%TO.N,unconnected-(U3-ON{slash}OFF-PadON-OFF)*%
X138492000Y-110203600D03*
%TO.P,U3,PGM,PROGRAM*%
%TO.N,unconnected-(U3-PROGRAM-PadPGM)*%
X135952000Y-110203600D03*
%TO.P,U3,VBAT,VBAT*%
%TO.N,unconnected-(U3-PadVBAT)*%
X128332000Y-110203600D03*
%TO.P,U3,VIN,VIN*%
%TO.N,+5V*%
X141032000Y-77183600D03*
%TD*%
D19*
%TO.P,C9,1*%
%TO.N,+3.3V*%
X122372000Y-70193600D03*
%TO.P,C9,2*%
%TO.N,GND*%
X124912000Y-70193600D03*
%TD*%
D10*
%TO.P,R3,1*%
%TO.N,+3.3V*%
X154512000Y-51693600D03*
%TO.P,R3,2*%
%TO.N,Net-(R3-Pad2)*%
X156412000Y-51693600D03*
%TD*%
D20*
%TO.P,J4,1,Pin_1*%
%TO.N,+3.3V*%
X136452000Y-43193600D03*
D21*
%TO.P,J4,2,Pin_2*%
%TO.N,GND*%
X135182000Y-43193600D03*
%TO.P,J4,3,Pin_3*%
%TO.N,Net-(J4-Pin_3)*%
X133912000Y-43193600D03*
%TO.P,J4,4,Pin_4*%
%TO.N,Net-(J4-Pin_4)*%
X132642000Y-43193600D03*
%TO.P,J4,5,Pin_5*%
%TO.N,unconnected-(J4-Pin_5-Pad5)*%
X131372000Y-43193600D03*
%TO.P,J4,6,Pin_6*%
%TO.N,unconnected-(J4-Pin_6-Pad6)*%
X130102000Y-43193600D03*
%TD*%
D22*
%TO.P,J1,1,1*%
%TO.N,+7.5V*%
X116412000Y-144693600D03*
D23*
%TO.P,J1,2,2*%
%TO.N,GND*%
X118912000Y-144693600D03*
%TD*%
D11*
%TO.P,U6,A*%
%TO.N,Net-(R2-Pad2)*%
X87192000Y-81293600D03*
%TO.P,U6,CATH*%
%TO.N,GND*%
X89732000Y-81293600D03*
%TO.P,U6,COLL*%
%TO.N,Net-(R13-Pad1)*%
X87192000Y-86793600D03*
%TO.P,U6,E*%
%TO.N,GND*%
X89732000Y-86793600D03*
%TD*%
D16*
%TO.P,D1,1,K*%
%TO.N,Net-(D1-K)*%
X175077000Y-144463600D03*
D17*
%TO.P,D1,2,A*%
%TO.N,GND*%
X175077000Y-141923600D03*
%TD*%
D24*
%TO.P,J3,1,1*%
%TO.N,Net-(U4-B01)*%
X160944000Y-98037200D03*
D25*
%TO.P,J3,2,2*%
%TO.N,Net-(U4-B02)*%
X160944000Y-96037200D03*
%TD*%
D19*
%TO.P,C7,1*%
%TO.N,GND*%
X134372000Y-47693600D03*
%TO.P,C7,2*%
%TO.N,+3.3V*%
X136912000Y-47693600D03*
%TD*%
D26*
%TO.P,U1,1,ADJ/GND*%
%TO.N,GND*%
X112502000Y-74760200D03*
%TO.P,U1,2,OUTPUT*%
%TO.N,+3.3V*%
X112502000Y-72220200D03*
%TO.P,U1,3,INPUT*%
%TO.N,+7.5V*%
X112502000Y-69680200D03*
%TD*%
%TO.P,Q1,1,IN*%
%TO.N,+7.5V*%
X153955700Y-66180200D03*
%TO.P,Q1,2,GND*%
%TO.N,GND*%
X153955700Y-68720200D03*
%TO.P,Q1,3,OUT*%
%TO.N,+5V*%
X153955700Y-71260200D03*
%TD*%
D10*
%TO.P,R12,1*%
%TO.N,Net-(R12-Pad1)*%
X103976000Y-63315200D03*
%TO.P,R12,2*%
%TO.N,Net-(R12-Pad2)*%
X103976000Y-65215200D03*
%TD*%
D27*
%TO.P,ACC1,AD0,AD0*%
%TO.N,unconnected-(ACC1-PadAD0)*%
X139372000Y-65475200D03*
%TO.P,ACC1,GND,GND*%
%TO.N,GND*%
X126672000Y-65475200D03*
%TO.P,ACC1,INT,INT*%
%TO.N,unconnected-(ACC1-PadINT)*%
X141912000Y-65475200D03*
%TO.P,ACC1,SCL,SCL*%
%TO.N,Net-(ACC1-PadSCL)*%
X129212000Y-65475200D03*
%TO.P,ACC1,SDA,SDA*%
%TO.N,Net-(ACC1-PadSDA)*%
X131752000Y-65475200D03*
%TO.P,ACC1,VCC,VCC*%
%TO.N,+3.3V*%
X124132000Y-65475200D03*
%TO.P,ACC1,XCL,XCL*%
%TO.N,unconnected-(ACC1-PadXCL)*%
X136832000Y-65475200D03*
%TO.P,ACC1,XDA,XDA*%
%TO.N,unconnected-(ACC1-PadXDA)*%
X134292000Y-65475200D03*
%TD*%
D28*
%TO.P,J2,1,1*%
%TO.N,Net-(U4-A01)*%
X106412000Y-96193600D03*
D25*
%TO.P,J2,2,2*%
%TO.N,Net-(U4-A02)*%
X106412000Y-98193600D03*
%TD*%
D10*
%TO.P,R1,1*%
%TO.N,+3.3V*%
X96512000Y-56193600D03*
%TO.P,R1,2*%
%TO.N,Net-(R1-Pad2)*%
X98412000Y-56193600D03*
%TD*%
D12*
%TO.P,C5,N*%
%TO.N,GND*%
X147976000Y-70720200D03*
D13*
%TO.P,C5,P*%
%TO.N,+5V*%
X147976000Y-73220200D03*
%TD*%
D12*
%TO.P,C6,N*%
%TO.N,GND*%
X117976000Y-76220200D03*
D13*
%TO.P,C6,P*%
%TO.N,+3.3V*%
X117976000Y-73720200D03*
%TD*%
D10*
%TO.P,R5,1*%
%TO.N,Net-(ACC1-PadSCL)*%
X130412000Y-69288600D03*
%TO.P,R5,2*%
%TO.N,Net-(R5-Pad2)*%
X130412000Y-71188600D03*
%TD*%
%TO.P,R13,1*%
%TO.N,Net-(R13-Pad1)*%
X104576000Y-88220200D03*
%TO.P,R13,2*%
%TO.N,Net-(R13-Pad2)*%
X106476000Y-88220200D03*
%TD*%
D29*
%TO.P,U4,1,VM*%
%TO.N,+7.5V*%
X126292000Y-119303600D03*
%TO.P,U4,2,VCC*%
%TO.N,+5V*%
X126292000Y-121843600D03*
%TO.P,U4,3,GND*%
%TO.N,GND*%
X126292000Y-124383600D03*
%TO.P,U4,4,A01*%
%TO.N,Net-(U4-A01)*%
X126292000Y-126923600D03*
%TO.P,U4,5,A02*%
%TO.N,Net-(U4-A02)*%
X126292000Y-129463600D03*
%TO.P,U4,6,B02*%
%TO.N,Net-(U4-B02)*%
X126292000Y-132003600D03*
%TO.P,U4,7,B01*%
%TO.N,Net-(U4-B01)*%
X126292000Y-134543600D03*
%TO.P,U4,8,GND*%
%TO.N,GND*%
X126292000Y-137083600D03*
%TO.P,U4,9,GND*%
X141532000Y-137083600D03*
%TO.P,U4,10,PWMB*%
%TO.N,Net-(U4-PWMB)*%
X141532000Y-134543600D03*
%TO.P,U4,11,BI2*%
%TO.N,Net-(U4-BI2)*%
X141532000Y-132003600D03*
%TO.P,U4,12,BI1*%
%TO.N,Net-(U4-BI1)*%
X141532000Y-129463600D03*
%TO.P,U4,13,STBY*%
%TO.N,unconnected-(U4-STBY-Pad13)*%
X141532000Y-126923600D03*
%TO.P,U4,14,AI1*%
%TO.N,Net-(U4-AI1)*%
X141532000Y-124383600D03*
%TO.P,U4,15,AI2*%
%TO.N,Net-(U4-AI2)*%
X141532000Y-121843600D03*
%TO.P,U4,16,PWMA*%
%TO.N,Net-(U4-PWMA)*%
X141532000Y-119303600D03*
%TD*%
D12*
%TO.P,C3,N*%
%TO.N,GND*%
X116412000Y-94693600D03*
D13*
%TO.P,C3,P*%
%TO.N,+7.5V*%
X113912000Y-94693600D03*
%TD*%
D10*
%TO.P,R10,1*%
%TO.N,Net-(D3-K)*%
X98507000Y-141693600D03*
%TO.P,R10,2*%
%TO.N,Net-(R10-Pad2)*%
X100407000Y-141693600D03*
%TD*%
D30*
%TO.N,*%
X146412000Y-89693600D03*
%TO.N,GND*%
X164976000Y-140720200D03*
%TO.N,+7.5V*%
X126412000Y-115193600D03*
X118412000Y-123693600D03*
X119412000Y-118693600D03*
%TO.N,Net-(S1-Pad1)*%
X112412000Y-117193600D03*
%TO.N,Net-(J4-Pin_4)*%
X132476000Y-40693600D03*
%TO.N,Net-(R6-Pad2)*%
X134912000Y-92193600D03*
%TO.N,Net-(R8-Pad2)*%
X159412000Y-87693600D03*
%TO.N,Net-(U4-AI1)*%
X144412000Y-91193600D03*
%TO.N,Net-(U4-AI2)*%
X136412000Y-108193600D03*
%TO.N,Net-(U4-BI2)*%
X129412000Y-107193600D03*
%TO.N,Net-(U4-BI1)*%
X132412000Y-113693600D03*
%TO.N,Net-(R10-Pad2)*%
X119412000Y-94193600D03*
X110912000Y-116193600D03*
%TO.N,Net-(R11-Pad1)*%
X129412000Y-57693600D03*
X128412000Y-61693600D03*
%TO.N,Net-(R14-Pad2)*%
X155912000Y-91693600D03*
%TD*%
D31*
%TO.N,+3.3V*%
X141032000Y-82263600D02*
X134442000Y-82263600D01*
X165476000Y-69720200D02*
X165476000Y-74720200D01*
X165476000Y-74720200D02*
X166949400Y-76193600D01*
X134442000Y-82263600D02*
X122372000Y-70193600D01*
X154512000Y-51693600D02*
X154512000Y-58756200D01*
X154512000Y-58756200D02*
X165476000Y-69720200D01*
X166949400Y-76193600D02*
X174512000Y-76193600D01*
%TO.N,GND*%
X116885400Y-146720200D02*
X111976000Y-146720200D01*
X176976000Y-64720200D02*
X169549400Y-57293600D01*
X108226000Y-140970200D02*
X109476000Y-142220200D01*
X134372000Y-47653600D02*
X134372000Y-47693600D01*
X179412000Y-81193600D02*
X177976000Y-79757600D01*
X106726000Y-140970200D02*
X108226000Y-140970200D01*
X153476000Y-141720200D02*
X163976000Y-141720200D01*
X119972600Y-74223600D02*
X117976000Y-76220200D01*
X118912000Y-144693600D02*
X116885400Y-146720200D01*
X123885400Y-139720200D02*
X127476000Y-139720200D01*
X120412000Y-55403914D02*
X120412000Y-52193600D01*
X106412000Y-57193600D02*
X118622314Y-57193600D01*
D32*
X126412000Y-70193600D02*
X124912000Y-70193600D01*
D31*
X177976000Y-72720200D02*
X176976000Y-71720200D01*
X134372000Y-50233600D02*
X134372000Y-50220200D01*
D32*
X146476000Y-53220200D02*
X153476000Y-46220200D01*
D31*
X132412000Y-45693600D02*
X134372000Y-47653600D01*
X118912000Y-144693600D02*
X123885400Y-139720200D01*
X129476000Y-141720200D02*
X153476000Y-141720200D01*
X176976000Y-71720200D02*
X176976000Y-64720200D01*
D32*
X146692000Y-79723600D02*
X141032000Y-79723600D01*
D31*
X120412000Y-52193600D02*
X120912000Y-51693600D01*
D32*
X147976000Y-70720200D02*
X146476000Y-69220200D01*
X135942000Y-79723600D02*
X126412000Y-70193600D01*
D31*
X120912000Y-51693600D02*
X116912000Y-47693600D01*
X177976000Y-79757600D02*
X177976000Y-72720200D01*
X134372000Y-50220200D02*
X119972600Y-64619600D01*
X120912000Y-51693600D02*
X120912000Y-50805200D01*
X109476000Y-142220200D02*
X109476000Y-137220200D01*
X111976000Y-146720200D02*
X111476000Y-146220200D01*
X94412000Y-89193600D02*
X92012000Y-86793600D01*
X163976000Y-141720200D02*
X164976000Y-140720200D01*
X116912000Y-47693600D02*
X104003566Y-47693600D01*
X92012000Y-86793600D02*
X89732000Y-86793600D01*
X111476000Y-144220200D02*
X111476000Y-146220200D01*
X118622314Y-57193600D02*
X120412000Y-55403914D01*
X134372000Y-50220200D02*
X134372000Y-47693600D01*
X101441000Y-87040200D02*
X99287600Y-89193600D01*
X119972600Y-64619600D02*
X119972600Y-74223600D01*
X109476000Y-137220200D02*
X106726000Y-134470200D01*
X127476000Y-139720200D02*
X129476000Y-141720200D01*
X109476000Y-142220200D02*
X111476000Y-144220200D01*
X169549400Y-57293600D02*
X163232000Y-57293600D01*
X101441000Y-50256166D02*
X101441000Y-87040200D01*
D32*
X146476000Y-69220200D02*
X146476000Y-53220200D01*
D31*
X104003566Y-47693600D02*
X101441000Y-50256166D01*
D32*
X159476000Y-46220200D02*
X163232000Y-49976200D01*
X163232000Y-49976200D02*
X163232000Y-51793600D01*
X141032000Y-79723600D02*
X135942000Y-79723600D01*
X153476000Y-46220200D02*
X159476000Y-46220200D01*
D31*
X99287600Y-89193600D02*
X94412000Y-89193600D01*
X126023600Y-45693600D02*
X132412000Y-45693600D01*
D32*
X151662000Y-84693600D02*
X146692000Y-79723600D01*
D31*
X120912000Y-50805200D02*
X126023600Y-45693600D01*
D32*
%TO.N,+7.5V*%
X155936000Y-66180200D02*
X153955700Y-66180200D01*
D31*
X113444000Y-124661600D02*
X113444000Y-141725600D01*
D32*
X157976000Y-80081465D02*
X157976000Y-68220200D01*
D31*
X122912000Y-115193600D02*
X119412000Y-118693600D01*
D32*
X149162000Y-84693600D02*
X150365400Y-85897000D01*
X152160465Y-85897000D02*
X157976000Y-80081465D01*
D31*
X113444000Y-141725600D02*
X116412000Y-144693600D01*
X126412000Y-115193600D02*
X122912000Y-115193600D01*
D32*
X150365400Y-85897000D02*
X152160465Y-85897000D01*
D31*
X118412000Y-123693600D02*
X114412000Y-123693600D01*
X114412000Y-123693600D02*
X113444000Y-124661600D01*
D32*
X157976000Y-68220200D02*
X155936000Y-66180200D01*
D31*
%TO.N,Net-(S1-Pad1)*%
X112412000Y-117193600D02*
X118802000Y-117193600D01*
X118802000Y-117193600D02*
X125792000Y-110203600D01*
%TO.N,Net-(U4-A02)*%
X110412000Y-94693600D02*
X110412000Y-97193600D01*
X108912000Y-93193600D02*
X110412000Y-94693600D01*
X104412000Y-96193600D02*
X104412000Y-95193600D01*
X108912000Y-114693600D02*
X108912000Y-117693600D01*
X110412000Y-97193600D02*
X108665400Y-98940200D01*
X127912000Y-117193600D02*
X129412000Y-118693600D01*
X108912000Y-117693600D02*
X111412000Y-120193600D01*
X104976000Y-110757600D02*
X108912000Y-114693600D01*
X106412000Y-98193600D02*
X104412000Y-96193600D01*
X108665400Y-98940200D02*
X108665399Y-99505669D01*
X111412000Y-120193600D02*
X121412000Y-120193600D01*
X104412000Y-95193600D02*
X106412000Y-93193600D01*
X129412000Y-126343600D02*
X126292000Y-129463600D01*
X108665399Y-99505669D02*
X104976000Y-103195068D01*
X121412000Y-120193600D02*
X124412000Y-117193600D01*
X106412000Y-93193600D02*
X108912000Y-93193600D01*
X124412000Y-117193600D02*
X127912000Y-117193600D01*
X129412000Y-118693600D02*
X129412000Y-126343600D01*
X104976000Y-103195068D02*
X104976000Y-110757600D01*
%TO.N,Net-(U4-A01)*%
X103976000Y-115257600D02*
X110412000Y-121693600D01*
X103976000Y-102720200D02*
X103976000Y-115257600D01*
X110412000Y-121693600D02*
X121062000Y-121693600D01*
X121062000Y-121693600D02*
X126292000Y-126923600D01*
X107912000Y-98784200D02*
X103976000Y-102720200D01*
X106412000Y-96193600D02*
X107912000Y-97693600D01*
X107912000Y-97693600D02*
X107912000Y-98784200D01*
D33*
%TO.N,Net-(U4-B01)*%
X162412000Y-99505200D02*
X160944000Y-98037200D01*
X162412000Y-101037200D02*
X162412000Y-140693600D01*
X162412000Y-101037200D02*
X162412000Y-99505200D01*
X132442000Y-140693600D02*
X126292000Y-134543600D01*
X162412000Y-140693600D02*
X132442000Y-140693600D01*
%TO.N,Net-(U4-B02)*%
X153444000Y-125037200D02*
X153444000Y-131037200D01*
X160944000Y-96037200D02*
X159444000Y-97537200D01*
X159444000Y-97537200D02*
X159444000Y-98440800D01*
X161444000Y-122440800D02*
X156040400Y-122440800D01*
X153444000Y-131037200D02*
X151944000Y-132537200D01*
X130075400Y-135787000D02*
X126292000Y-132003600D01*
X159444000Y-98440800D02*
X161444000Y-100440800D01*
X150944000Y-132537200D02*
X147694200Y-135787000D01*
X156040400Y-122440800D02*
X153444000Y-125037200D01*
X161444000Y-100440800D02*
X161444000Y-122440800D01*
X147694200Y-135787000D02*
X130075400Y-135787000D01*
X151944000Y-132537200D02*
X150944000Y-132537200D01*
%TO.N,Net-(J4-Pin_4)*%
X132476000Y-40693600D02*
X132476000Y-40797600D01*
X132476000Y-40797600D02*
X132642000Y-40963600D01*
X132642000Y-40963600D02*
X132642000Y-43193600D01*
%TO.N,Net-(R6-Pad2)*%
X135722000Y-92193600D02*
X134912000Y-92193600D01*
X141032000Y-97503600D02*
X135722000Y-92193600D01*
%TO.N,Net-(R8-Pad2)*%
X155502600Y-87693600D02*
X153502600Y-89693600D01*
X151912000Y-89693600D02*
X142912000Y-98693600D01*
X129350400Y-99025200D02*
X125792000Y-102583600D01*
X142912000Y-98693600D02*
X135182000Y-98693600D01*
X153502600Y-89693600D02*
X151912000Y-89693600D01*
X135182000Y-98693600D02*
X134850400Y-99025200D01*
X134850400Y-99025200D02*
X129350400Y-99025200D01*
X159412000Y-87693600D02*
X155502600Y-87693600D01*
%TO.N,Net-(U4-AI1)*%
X144412000Y-91193600D02*
X127102000Y-91193600D01*
X127102000Y-91193600D02*
X125792000Y-89883600D01*
%TO.N,Net-(U4-PWMB)*%
X156265400Y-95839984D02*
X153412000Y-98693384D01*
X144912000Y-132693600D02*
X143062000Y-134543600D01*
X159965400Y-92015800D02*
X156265400Y-95715800D01*
X144412000Y-88693600D02*
X145965400Y-87140200D01*
X127142000Y-88693600D02*
X144412000Y-88693600D01*
X144912000Y-125569200D02*
X144912000Y-132693600D01*
X159965400Y-87464374D02*
X159965400Y-92015800D01*
X156265400Y-95715800D02*
X156265400Y-95839984D01*
X153412000Y-117069200D02*
X144912000Y-125569200D01*
X145965400Y-87140200D02*
X159641226Y-87140200D01*
X153412000Y-98693384D02*
X153412000Y-117069200D01*
X143062000Y-134543600D02*
X141532000Y-134543600D01*
X159641226Y-87140200D02*
X159965400Y-87464374D01*
X125792000Y-87343600D02*
X127142000Y-88693600D01*
%TO.N,Net-(U4-AI2)*%
X136938600Y-108720200D02*
X136412000Y-108193600D01*
X142976000Y-110220200D02*
X141476000Y-108720200D01*
X141476000Y-108720200D02*
X136938600Y-108720200D01*
X143032000Y-121843600D02*
X143532000Y-121343600D01*
X143532000Y-121343600D02*
X143532000Y-115843600D01*
X142976000Y-115287600D02*
X142976000Y-110220200D01*
X143532000Y-115843600D02*
X142976000Y-115287600D01*
X141532000Y-121843600D02*
X143032000Y-121843600D01*
X143442300Y-115753900D02*
X143532000Y-115843600D01*
%TO.N,Net-(U4-BI2)*%
X130412000Y-112193600D02*
X129412000Y-111193600D01*
X141532000Y-132003600D02*
X130412000Y-120883600D01*
X129412000Y-111193600D02*
X129412000Y-107193600D01*
X130412000Y-120883600D02*
X130412000Y-112193600D01*
%TO.N,Net-(R12-Pad1)*%
X103872000Y-63211200D02*
X103976000Y-63315200D01*
X103872000Y-57193600D02*
X103872000Y-63211200D01*
%TO.N,Net-(U4-BI1)*%
X132412000Y-113693600D02*
X132412000Y-120343600D01*
X132412000Y-120343600D02*
X141532000Y-129463600D01*
%TO.N,Net-(R12-Pad2)*%
X103976000Y-78569200D02*
X104301500Y-78894700D01*
X115755600Y-87037200D02*
X123912000Y-95193600D01*
X104301500Y-78894700D02*
X112444000Y-87037200D01*
X123912000Y-95193600D02*
X123912000Y-98163600D01*
X112444000Y-87037200D02*
X115755600Y-87037200D01*
X123912000Y-98163600D02*
X125792000Y-100043600D01*
X103976000Y-65215200D02*
X103976000Y-78569200D01*
%TO.N,Net-(R10-Pad2)*%
X110912000Y-116193600D02*
X117912000Y-116193600D01*
X117912000Y-116193600D02*
X121912000Y-112193600D01*
X121912000Y-96693600D02*
X119412000Y-94193600D01*
X121912000Y-112193600D02*
X121912000Y-96693600D01*
%TO.N,Net-(R11-Pad1)*%
X129412000Y-60693600D02*
X128412000Y-61693600D01*
X129412000Y-57693600D02*
X129412000Y-60693600D01*
%TO.N,Net-(R13-Pad2)*%
X122912000Y-104193600D02*
X123842000Y-105123600D01*
X107449400Y-89193600D02*
X115912000Y-89193600D01*
X123842000Y-105123600D02*
X125792000Y-105123600D01*
X122912000Y-96193600D02*
X122912000Y-104193600D01*
X115912000Y-89193600D02*
X122912000Y-96193600D01*
X106476000Y-88220200D02*
X107449400Y-89193600D01*
%TO.N,Net-(R14-Pad2)*%
X151068400Y-100537200D02*
X144912000Y-100537200D01*
X144912000Y-104693600D02*
X143412000Y-106193600D01*
X144912000Y-100537200D02*
X144912000Y-104693600D01*
X143412000Y-106193600D02*
X127262000Y-106193600D01*
X155912000Y-95693600D02*
X151068400Y-100537200D01*
X155912000Y-91693600D02*
X155912000Y-95693600D01*
X127262000Y-106193600D02*
X125792000Y-107663600D01*
%TD*%
M02*
